<svg width="269" height="33" viewBox="0 0 269 33" fill="none" xmlns="http://www.w3.org/2000/svg">
<rect y="16" width="269" height="2" fill="url(#paint0_linear_69_90095)"/>
<circle cx="134.5" cy="16.5" r="16" fill="#DEE2E6" stroke="#343A40"/>
<path d="M128.862 12.098H141.16V13.11H128.862V12.098ZM125.276 16.212H144.68V17.224H125.276V16.212ZM131.348 16.762H132.47C132.353 17.8473 132.162 18.8593 131.898 19.798C131.634 20.722 131.245 21.558 130.732 22.306C130.233 23.054 129.559 23.7067 128.708 24.264C127.872 24.8213 126.816 25.2833 125.54 25.65C125.496 25.5767 125.437 25.4813 125.364 25.364C125.291 25.2613 125.21 25.1587 125.122 25.056C125.049 24.9533 124.975 24.8727 124.902 24.814C126.119 24.4913 127.124 24.0733 127.916 23.56C128.708 23.0467 129.331 22.4527 129.786 21.778C130.255 21.0887 130.607 20.326 130.842 19.49C131.077 18.654 131.245 17.7447 131.348 16.762ZM136.848 16.784H137.926V23.472C137.926 23.78 137.992 23.978 138.124 24.066C138.256 24.154 138.579 24.198 139.092 24.198C139.209 24.198 139.429 24.198 139.752 24.198C140.075 24.198 140.434 24.198 140.83 24.198C141.226 24.198 141.6 24.198 141.952 24.198C142.304 24.198 142.561 24.198 142.722 24.198C143.03 24.198 143.257 24.132 143.404 24C143.551 23.8533 143.653 23.56 143.712 23.12C143.785 22.68 143.829 22.02 143.844 21.14C143.932 21.1987 144.035 21.2573 144.152 21.316C144.269 21.36 144.387 21.4113 144.504 21.47C144.636 21.514 144.746 21.5507 144.834 21.58C144.805 22.548 144.724 23.296 144.592 23.824C144.46 24.352 144.255 24.7113 143.976 24.902C143.712 25.1073 143.316 25.21 142.788 25.21C142.685 25.21 142.458 25.21 142.106 25.21C141.754 25.21 141.358 25.21 140.918 25.21C140.478 25.21 140.075 25.21 139.708 25.21C139.356 25.21 139.136 25.21 139.048 25.21C138.476 25.21 138.029 25.166 137.706 25.078C137.383 24.99 137.156 24.814 137.024 24.55C136.907 24.3007 136.848 23.9413 136.848 23.472V16.784ZM134.406 5.63H135.506V8.842H134.406V5.63ZM125.87 8.138H144.152V12.472H143.03V9.172H126.948V12.472H125.87V8.138Z" fill="#495057"/>
<defs>
<linearGradient id="paint0_linear_69_90095" x1="0" y1="17" x2="269" y2="17" gradientUnits="userSpaceOnUse">
<stop stop-color="#CED4DA"/>
<stop offset="0.5" stop-color="#343A40"/>
<stop offset="1" stop-color="#CED4DA"/>
</linearGradient>
</defs>
</svg>
